#N canvas 260 50 1042 850 10;
#N canvas 258 299 823 483 (subpatch) 0;
#X floatatom 117 112 5 0 0 0 X - -;
#X floatatom 117 137 5 0 0 0 Y - -;
#X floatatom 175 112 5 0 0 0 X - -;
#X floatatom 175 137 5 0 0 0 Y - -;
#X floatatom 117 162 5 0 0 0 X - -;
#X floatatom 117 187 5 0 0 0 Y - -;
#X floatatom 175 162 5 0 0 0 X - -;
#X floatatom 175 187 5 0 0 0 Y - -;
#X obj 148 48 unpack f f;
#X obj 147 15 inlet;
#X obj 224 47 unpack f f;
#X obj 223 14 inlet;
#X obj 306 48 unpack f f;
#X obj 305 15 inlet;
#X obj 413 42 unpack f f;
#X obj 412 9 inlet;
#X obj 46 17 loadbang;
#X msg 24 42 -2;
#X msg 63 41 2;
#X obj 515 10 inlet;
#X obj 145 76 / 10;
#X obj 191 75 / 10;
#X obj 235 76 / 10;
#X obj 276 76 / 10;
#X obj 325 75 / 10;
#X obj 364 73 / 10;
#X obj 422 73 / 10;
#X obj 468 73 / 10;
#X obj 96 268 bondo 8 ---------------------------;
#X obj 96 298 pack f f f f f f f f f f f f f f f f;
#X obj 97 329 outlet;
#X obj 335 300 bondo 8 ---------------------------;
#X obj 336 341 pack f f f f f f f f f f f f f f f f;
#X obj 337 372 outlet;
#X obj 332 262 * 10;
#X obj 367 263 * 10;
#X obj 402 263 * 10;
#X obj 435 263 * 10;
#X obj 467 263 * 10;
#X obj 500 262 * 10;
#X obj 533 261 * 10;
#X obj 568 262 * 10;
#X connect 0 0 28 6;
#X connect 0 0 40 0;
#X connect 1 0 28 7;
#X connect 1 0 41 0;
#X connect 2 0 28 4;
#X connect 2 0 38 0;
#X connect 3 0 28 5;
#X connect 3 0 39 0;
#X connect 4 0 28 0;
#X connect 4 0 34 0;
#X connect 5 0 28 1;
#X connect 5 0 35 0;
#X connect 6 0 28 2;
#X connect 6 0 36 0;
#X connect 7 0 28 3;
#X connect 7 0 37 0;
#X connect 8 0 20 0;
#X connect 8 1 21 0;
#X connect 9 0 8 0;
#X connect 10 0 22 0;
#X connect 10 1 23 0;
#X connect 11 0 10 0;
#X connect 12 0 24 0;
#X connect 12 1 25 0;
#X connect 13 0 12 0;
#X connect 14 0 26 0;
#X connect 14 1 27 0;
#X connect 15 0 14 0;
#X connect 16 0 17 0;
#X connect 16 0 18 0;
#X connect 19 0 20 1;
#X connect 19 0 21 1;
#X connect 19 0 22 1;
#X connect 19 0 23 1;
#X connect 19 0 24 1;
#X connect 19 0 25 1;
#X connect 19 0 26 1;
#X connect 19 0 27 1;
#X connect 19 0 34 1;
#X connect 19 0 35 1;
#X connect 19 0 36 1;
#X connect 19 0 37 1;
#X connect 19 0 38 1;
#X connect 19 0 39 1;
#X connect 19 0 40 1;
#X connect 19 0 41 1;
#X connect 20 0 4 0;
#X connect 21 0 5 0;
#X connect 22 0 6 0;
#X connect 23 0 7 0;
#X connect 24 0 2 0;
#X connect 25 0 3 0;
#X connect 26 0 0 0;
#X connect 27 0 1 0;
#X connect 28 0 29 0;
#X connect 28 1 29 1;
#X connect 28 2 29 2;
#X connect 28 3 29 3;
#X connect 28 4 29 4;
#X connect 28 5 29 5;
#X connect 28 6 29 6;
#X connect 28 7 29 7;
#X connect 29 0 30 0;
#X connect 31 0 32 0;
#X connect 31 1 32 1;
#X connect 31 2 32 2;
#X connect 31 3 32 3;
#X connect 31 4 32 4;
#X connect 31 5 32 5;
#X connect 31 6 32 6;
#X connect 31 7 32 7;
#X connect 32 0 33 0;
#X connect 34 0 31 0;
#X connect 35 0 31 1;
#X connect 36 0 31 2;
#X connect 37 0 31 3;
#X connect 38 0 31 4;
#X connect 39 0 31 5;
#X connect 40 0 31 6;
#X connect 41 0 31 7;
#X coords 0 -1 1 1 120 120 1 100 100;
#X restore 105 122 pd;
#X obj 224 526 fux_homo;
#X obj 224 565 spigot;
#X obj 228 156 tgl 15 0 empty empty PROJECTION_ON/OFF 17 7 0 10 -262144
-1 -1 0 1;
#X obj 145 73 demux 0 1 2 3;
#X obj 145 52 pack f f;
#X obj 93 -328 select 1;
#X obj 154 -328 select 1;
#X obj 189 -183 * 2;
#X floatatom 234 -114 5 0 0 0 - - -;
#X floatatom 189 -113 5 0 0 0 - - -;
#X obj 189 -163 t a a;
#X obj 189 -205 t a a;
#X floatatom 220 -183 5 0 0 0 - - -;
#X obj 93 -305 i;
#X obj 158 -42 pack f f;
#X obj 102 11 fux_osc_pointer;
#X obj 236 -368 loadbang;
#X obj 234 -135 + 1;
#X obj -21 141 / 10;
#X obj 9 123 / 10;
#X obj -45 532 translateXYZ;
#X obj 236 -325 until;
#X msg 236 -346 4;
#X obj 236 -305 i;
#X obj 263 -305 + 1;
#X obj 228 191 bng 15 250 50 0 empty empty RESET_POINT 17 10 0 10 -262144
-1 -1;
#X obj 189 -227 mod 4;
#X obj 111 489 color 1 0 0;
#X obj 118 537 loadbang;
#X obj 111 511 fux_homo;
#X obj 111 429 gemhead 90;
#X obj -45 428 gemhead 91;
#X obj -45 448 spigot;
#X obj 111 449 spigot;
#X obj 228 174 tgl 15 0 empty empty WARP_LINE_ON/OFF 17 7 0 10 -262144
-1 -1 1 1;
#X obj 154 -305 i;
#X obj 117 -305 - 1;
#X obj 178 -305 + 1;
#X obj 40 451 loadbang;
#X obj -45 469 ortho;
#X obj 111 469 ortho;
#X obj 111 583 translateXYZ;
#X msg 40 472 1;
#X obj -45 554 circle 0.15;
#X text 268 -344 Load saved points on startup;
#X msg 40 495 draw line;
#X obj -45 499 color 0 1 0;
#X text -132 271 POINTER/WARP LINE;
#X obj 224 592 outlet;
#X text -10 -353 coordinate;
#X text 102 -355 next/previous point;
#X obj 282 288 f \$0;
#X obj 292 333 pack f f f f f f f f f;
#X obj 258 236 t b a;
#X obj 319 273 unpack f f f f f f f f;
#X msg 292 371 \; \$1-point 0 \$2 \$3 \$4 \$5 \$6 \$7 \$8 \$9;
#X obj 189 -86 tabread \$0-point;
#X obj 234 -64 tabread \$0-point;
#X obj 224 435 gemhead \$1;
#X text 297 407 save point to array;
#X obj 236 77 loadbang;
#X obj 276 -175 t b b;
#X floatatom 274 -38 5 0 0 0 - - -;
#X floatatom 250 -5 5 0 0 0 - - -;
#X msg 377 227 -20 -20 20 -20 20 20 -20 20;
#X obj 382 191 t b b;
#X obj 257 26 tabwrite \$0-point;
#X obj 302 48 tabwrite \$0-point;
#X obj 52 144 i;
#X obj 315 74 i;
#X obj 96 -413 unpack f f;
#X obj 95 -386 change;
#X obj 145 -385 change;
#X obj 350 -269 select \$2;
#X obj 350 -242 tgl 15 0 empty empty empty 17 7 0 10 -262144 -1 -1
0 1;
#X obj 348 -200 select 0 1;
#X msg 401 -243 0;
#X msg 394 -158 0 1 0;
#X msg 347 -157 1 0 0;
#X msg 118 561 draw line;
#X obj 224 477 ortho;
#X obj 236 502 translateXYZ;
#X floatatom 229 215 5 0 0 0 - - -;
#X floatatom 267 215 5 0 0 0 - - -;
#X floatatom 305 215 5 0 0 0 - - -;
#X obj 228 121 cnv 15 120 22 empty \$0-map_status LAYER_MAPPER 5 12
0 14 -33289 -262144 0;
#X msg 753 -48 color 12;
#X msg 753 -67 loadbang;
#X msg 427 -217 color 12;
#X msg 445 -256 color 13;
#X obj 448 -181 s \$0-map_status;
#X obj 753 -28 s \$0-map_status;
#X obj 418 -69 table \$0-point;
#X obj 100 -439 spigot;
#X obj 274 -217 s \$0-active;
#X obj 98 -469 r nds_select_point;
#X obj 24 -266 spigot;
#X obj 210 -434 r \$0-active;
#X obj -8 -409 r nds_pos;
#X obj 347 -306 r active;
#X obj 408 136 loadbang;
#X obj 295 748 mesh_square 10;
#X obj 112 659 GEMglPolygonMode GL_FRONT GL_LINE;
#X obj 112 634 GEMglLineWidth 1;
#X obj 118 682 scaleXYZ 2 2 1;
#X obj 116 711 mesh_square 5;
#X obj 538 -46 spigot;
#X obj 538 -68 r nds_x;
#X obj 538 -23 route 1;
#X obj 604 -48 spigot;
#X obj 604 -25 route 1;
#X obj 604 -70 r nds_b;
#X obj 671 -48 spigot;
#X obj 671 -25 route 1;
#X obj 671 -70 r nds_start;
#X obj 613 -313 r nds_up;
#X obj 613 -291 select 1;
#X obj 634 -175 ==;
#X obj 607 -220 t a a;
#X obj 607 -175 !=;
#X msg 607 -150 0;
#X msg 609 -244 1;
#X obj 667 -151 print;
#X obj 674 56 r nds_down;
#X obj 678 97 select 1;
#X connect 0 0 30 1;
#X connect 0 0 1 1;
#X connect 1 0 2 0;
#X connect 2 0 49 0;
#X connect 3 0 2 1;
#X connect 4 0 0 0;
#X connect 4 1 0 1;
#X connect 4 2 0 2;
#X connect 4 3 0 3;
#X connect 5 0 4 0;
#X connect 6 0 14 0;
#X connect 7 0 36 0;
#X connect 8 0 11 0;
#X connect 9 0 58 0;
#X connect 9 0 68 1;
#X connect 10 0 57 0;
#X connect 11 0 10 0;
#X connect 11 0 67 1;
#X connect 11 1 18 0;
#X connect 12 0 8 0;
#X connect 12 1 13 0;
#X connect 13 0 4 1;
#X connect 14 0 36 1;
#X connect 14 0 27 0;
#X connect 14 0 37 0;
#X connect 15 0 16 1;
#X connect 16 0 69 0;
#X connect 16 0 70 0;
#X connect 16 1 19 0;
#X connect 16 1 5 0;
#X connect 16 1 69 1;
#X connect 16 2 20 0;
#X connect 16 2 5 1;
#X connect 16 2 70 1;
#X connect 17 0 23 0;
#X connect 18 0 9 0;
#X connect 19 0 21 1;
#X connect 20 0 21 2;
#X connect 21 0 44 0;
#X connect 22 0 24 0;
#X connect 23 0 22 0;
#X connect 24 0 25 0;
#X connect 24 0 27 0;
#X connect 25 0 24 1;
#X connect 26 0 62 0;
#X connect 27 0 12 0;
#X connect 28 0 30 0;
#X connect 29 0 80 0;
#X connect 30 0 42 0;
#X connect 31 0 34 0;
#X connect 32 0 33 0;
#X connect 33 0 40 0;
#X connect 34 0 41 0;
#X connect 35 0 33 1;
#X connect 35 0 34 1;
#X connect 36 0 14 1;
#X connect 36 0 38 0;
#X connect 37 0 14 1;
#X connect 38 0 36 1;
#X connect 38 0 27 0;
#X connect 39 0 43 0;
#X connect 40 0 47 0;
#X connect 41 0 28 0;
#X connect 42 0 104 0;
#X connect 43 0 42 3;
#X connect 43 0 21 3;
#X connect 43 0 46 0;
#X connect 46 0 44 0;
#X connect 47 0 21 0;
#X connect 52 0 53 0;
#X connect 53 0 56 0;
#X connect 54 0 52 0;
#X connect 54 1 55 0;
#X connect 55 0 53 1;
#X connect 55 1 53 2;
#X connect 55 2 53 3;
#X connect 55 3 53 4;
#X connect 55 4 53 5;
#X connect 55 5 53 6;
#X connect 55 6 53 7;
#X connect 55 7 53 8;
#X connect 57 0 15 0;
#X connect 57 0 64 0;
#X connect 58 0 15 1;
#X connect 58 0 63 0;
#X connect 59 0 81 0;
#X connect 61 0 35 0;
#X connect 62 0 23 0;
#X connect 62 1 66 0;
#X connect 65 0 55 0;
#X connect 66 0 54 0;
#X connect 66 1 65 0;
#X connect 69 0 67 0;
#X connect 70 0 68 0;
#X connect 71 0 72 0;
#X connect 71 1 73 0;
#X connect 72 0 6 0;
#X connect 73 0 7 0;
#X connect 74 0 75 0;
#X connect 74 1 77 0;
#X connect 74 1 89 0;
#X connect 75 0 76 0;
#X connect 75 0 90 0;
#X connect 75 0 95 0;
#X connect 75 0 107 1;
#X connect 75 0 110 1;
#X connect 75 0 113 1;
#X connect 75 0 118 1;
#X connect 75 0 120 1;
#X connect 76 0 79 0;
#X connect 76 1 78 0;
#X connect 77 0 75 0;
#X connect 78 0 47 1;
#X connect 78 0 28 1;
#X connect 79 0 47 1;
#X connect 79 0 28 1;
#X connect 81 0 82 0;
#X connect 82 0 1 0;
#X connect 83 0 82 1;
#X connect 84 0 82 2;
#X connect 85 0 82 3;
#X connect 87 0 92 0;
#X connect 88 0 87 0;
#X connect 89 0 91 0;
#X connect 90 0 91 0;
#X connect 94 0 71 0;
#X connect 96 0 94 0;
#X connect 97 0 16 0;
#X connect 98 0 94 1;
#X connect 98 0 97 1;
#X connect 99 0 97 0;
#X connect 100 0 74 0;
#X connect 101 0 26 0;
#X connect 103 0 105 0;
#X connect 104 0 103 0;
#X connect 105 0 106 0;
#X connect 107 0 109 0;
#X connect 108 0 107 0;
#X connect 109 0 35 0;
#X connect 110 0 111 0;
#X connect 111 0 3 0;
#X connect 112 0 110 0;
#X connect 113 0 114 0;
#X connect 114 0 26 0;
#X connect 115 0 113 0;
#X connect 116 0 117 0;
#X connect 117 0 122 0;
#X connect 118 0 123 0;
#X connect 118 0 35 0;
#X connect 119 0 118 0;
#X connect 119 1 120 0;
#X connect 120 0 121 0;
#X connect 121 0 3 0;
#X connect 121 0 35 0;
#X connect 122 0 119 0;
#X connect 124 0 125 0;
#X connect 125 0 35 0;
#X coords 0 -1 1 1 250 150 1 100 100;
