#N canvas 314 185 959 715 10;
#X text 566 61 coordinate;
#X obj 404 -199 dumpOSC 9000;
#X obj 472 -5 OSCroute /Kaoss;
#X obj 472 16 OSCroute /1;
#X obj 472 37 OSCroute /pos;
#X text 567 48 fux_osc_pointer 1;
#X text 407 -27 selection;
#X obj 398 -68 bondo 2;
#X obj 399 -46 pack f f;
#X obj 473 -36 OSCroute /preset3 /preset1;
#X obj 569 -15 OSCroute /Button;
#X obj 569 6 OSCroute /0 /1 /2 /3;
#X obj 704 -62 select 1;
#X obj 765 -62 select 1;
#X obj 704 -39 i;
#X obj 765 -39 i;
#X obj 728 -39 - 1;
#X obj 789 -39 + 1;
#X obj 472 65 s nds_pos;
#X obj 704 63 s nds_id;
#X obj 399 95 s nds_select_point;
#X obj 398 -174 OSCroute /nds;
#X obj 101 100 cnv 15 200 80 empty empty NDScontrol 20 20 0 14 -33289
-262144 0;
#X obj 121 133 tgl 15 0 empty empty dump_data 17 7 0 10 -262144 -1
-258113 0 1;
#X obj 201 133 bng 15 250 50 0 empty empty signal 17 7 0 10 -262144
-4034 -258113;
#X obj 273 -91 t b;
#X obj 126 -102 spigot 0;
#X obj 126 -60 print;
#X obj 586 -65 s nds_x;
#X obj 499 -64 s nds_b;
#X obj 667 -109 s nds_start;
#X obj 757 -103 s nds_up;
#X obj 398 -150 OSCroute /right /left /a /b /x /y /start /select /up
/down;
#X obj 854 -122 s nds_down;
#X connect 1 0 21 0;
#X connect 1 0 25 0;
#X connect 1 0 26 0;
#X connect 2 0 3 0;
#X connect 3 0 4 0;
#X connect 4 0 18 0;
#X connect 7 0 8 0;
#X connect 7 1 8 1;
#X connect 8 0 20 0;
#X connect 9 0 2 0;
#X connect 9 1 10 0;
#X connect 10 0 11 0;
#X connect 12 0 14 0;
#X connect 13 0 15 0;
#X connect 14 0 15 1;
#X connect 14 0 16 0;
#X connect 14 0 19 0;
#X connect 15 0 14 1;
#X connect 15 0 17 0;
#X connect 16 0 14 1;
#X connect 17 0 15 1;
#X connect 17 0 19 0;
#X connect 21 0 32 0;
#X connect 21 1 9 0;
#X connect 23 0 26 1;
#X connect 25 0 24 0;
#X connect 26 0 27 0;
#X connect 32 0 7 0;
#X connect 32 1 7 1;
#X connect 32 2 13 0;
#X connect 32 3 29 0;
#X connect 32 4 28 0;
#X connect 32 5 12 0;
#X connect 32 6 30 0;
#X connect 32 8 31 0;
#X connect 32 9 33 0;
#X coords 0 -1 1 1 200 80 1 100 100;
