#N canvas 354 24 1083 850 10;
#X obj 652 -53 gemwin;
#X msg 652 -96 create \, 1;
#X msg 691 -119 destroy;
#X obj 652 -117 t b b;
#X obj 652 -157 bng 30 250 50 0 empty empty GO! 35 15 0 15 -258113
-1 -1;
#X obj 444 -116 anysurface_nds;
#X obj 56 -148 cnv 30 1 1 empty empty anysurface_projection_toolkit_0.1
0 0 0 20 -233017 -66577 0;
#X obj 56 -116 anysurface_layer_select 4;
#X msg 744 -76 offset 1440 -50;
#X obj 383 264 pix_texture;
#X obj 50 475 square 2;
#N canvas 263 104 1177 739 framebuffer 0;
#X obj 477 41 gemhead 20;
#X msg 602 87 dimen 1024 1024;
#X msg 751 74 color 0 0 0 0;
#X msg 549 232 rectangle \$1;
#X obj 549 214 tgl 15 0 empty empty empty 0 -6 0 8 -262144 -1 -1 0
1;
#X msg 509 101 type FLOAT;
#X obj 477 298 gemframebuffer;
#X msg 531 187 texunit \$1;
#X msg 495 62 type BYTE;
#X msg 503 82 type INT;
#X msg 658 179 format YUV;
#X msg 649 158 format RGB;
#X msg 668 200 format RGBA;
#X msg 680 220 format RGB32;
#X floatatom 531 167 5 0 0 0 - - -;
#X obj 751 53 loadbang;
#X obj 649 245 t a;
#X obj 585 124 t a;
#X obj 751 135 t a;
#X obj 495 130 t a;
#X obj 495 154 t a;
#X msg 585 30 perspec -1 1 -1 1 1 20;
#X msg 593 56 perspec -1 1 -1 1 3 75;
#X obj 733 394 outlet;
#X obj 771 186 loadbang;
#X msg 615 106 dimen 320 320;
#X text 734 28 default;
#X obj 443 363 outlet;
#X connect 0 0 6 0;
#X connect 1 0 17 0;
#X connect 2 0 18 0;
#X connect 3 0 6 0;
#X connect 4 0 3 0;
#X connect 5 0 19 0;
#X connect 6 0 27 0;
#X connect 6 1 23 0;
#X connect 7 0 6 0;
#X connect 8 0 19 0;
#X connect 9 0 19 0;
#X connect 10 0 16 0;
#X connect 11 0 16 0;
#X connect 12 0 16 0;
#X connect 13 0 16 0;
#X connect 14 0 7 0;
#X connect 15 0 2 0;
#X connect 16 0 6 0;
#X connect 17 0 20 0;
#X connect 18 0 20 0;
#X connect 19 0 20 0;
#X connect 20 0 6 0;
#X connect 21 0 17 0;
#X connect 22 0 17 0;
#X connect 24 0 12 0;
#X connect 25 0 17 0;
#X restore 365 194 pd framebuffer;
#N canvas 0 22 1267 852 graphics 0;
#X obj 435 399 translateXYZ 0 0 -4;
#X floatatom 472 368 5 0 0 0 - - -;
#X floatatom 509 376 5 0 0 0 - - -;
#X obj 435 277 inlet;
#X obj 440 457 square 2;
#X connect 0 0 4 0;
#X connect 1 0 0 1;
#X connect 2 0 0 2;
#X connect 3 0 0 0;
#X restore 365 221 pd graphics;
#X msg 652 -76 dimen 1024 768;
#X obj 55 -9 anysurface_mapper 30 0 1;
#X obj 317 -6 anysurface_mapper 30 1 1;
#X obj 577 -6 anysurface_mapper 30 2 1;
#X obj 577 383 square 2;
#X obj 592 175 pd_video;
#X obj 66 179 pd_video;
#X obj 35 328 pix_texture;
#X obj 62 282 pix_texture;
#X obj 317 156 color 0 0 0;
#X obj 436 168 square 2;
#X obj 577 333 pix_texture;
#X obj 591 300 pix_texture;
#X obj 206 280 pd_3band;
#X obj 690 668 square 2;
#X obj 705 460 pd_video;
#X obj 704 585 pix_texture;
#X obj 690 618 color 1 1 1;
#X obj 690 301 anysurface_mapper 30 3 1;
#X floatatom 205 481 5 0 0 0 - - -;
#X obj 65 436 color 1 0 0;
#X msg 247 579 1 1 1;
#X msg 191 579 1 0 0;
#X obj 205 535 >= 18;
#X obj 193 612 delay 1000;
#X connect 1 0 0 0;
#X connect 2 0 0 0;
#X connect 3 0 1 0;
#X connect 3 1 13 0;
#X connect 4 0 3 0;
#X connect 8 0 0 0;
#X connect 11 0 12 0;
#X connect 11 1 9 1;
#X connect 13 0 0 0;
#X connect 14 0 20 0;
#X connect 15 0 22 0;
#X connect 16 0 24 0;
#X connect 18 0 25 0;
#X connect 19 0 21 0;
#X connect 20 0 33 0;
#X connect 21 1 20 1;
#X connect 22 0 23 0;
#X connect 24 0 17 0;
#X connect 25 1 24 1;
#X connect 26 0 32 0;
#X connect 28 0 29 0;
#X connect 30 0 27 0;
#X connect 31 0 30 0;
#X connect 32 0 36 0;
#X connect 33 0 10 0;
#X connect 34 0 33 1;
#X connect 35 0 33 1;
#X connect 35 0 37 0;
#X connect 36 0 35 0;
#X connect 37 0 34 0;
#X coords 0 0 1 1 600 500 0;
