#N canvas 2 22 744 851 10;
#X obj 65 -68 unpack f f f;
#X obj 76 12 route 0;
#X obj 76 33 change;
#X obj 114 355 i;
#X obj 177 355 i;
#X obj 156 287 unpack f f f;
#X obj 129 -102 t a a;
#X obj 65 468 -;
#X obj 321 422 -;
#X obj 88 94 t b b;
#X obj 76 -10 change;
#X obj 89 604 +;
#X obj 65 506 t a a b;
#X obj 114 564 i;
#X obj 119 506 i;
#X obj 65 698 +;
#X floatatom 65 735 5 0 0 0 - - -;
#X obj 86 661 i;
#X obj 340 548 +;
#X obj 321 450 t a a b;
#X obj 360 509 i;
#X obj 375 450 i;
#X obj 321 602 +;
#X floatatom 321 623 5 0 0 0 - - -;
#X obj 345 578 i;
#X obj 80 156 t b b b b;
#X obj 129 -131 inlet;
#X obj 311 679 outlet;
#X obj 117 772 outlet;
#X msg 501 51 0;
#X msg 473 51 0;
#X msg 445 51 0;
#X msg 417 51 0;
#X msg 387 50 0;
#X msg 356 50 0;
#X msg 326 50 0;
#X obj 274 -78 inlet;
#X msg 297 50 0;
#X msg 269 50 0;
#X obj 202 50 unpack f f;
#X obj 274 -52 t b a b b b b b b b b b;
#X obj 188 -27 t b b b b;
#X msg 165 9 0;
#X msg 197 7 0;
#X obj -36 315 outlet;
#X obj 47 66 t b b;
#X connect 0 0 7 0;
#X connect 0 1 8 0;
#X connect 0 2 10 0;
#X connect 1 0 2 0;
#X connect 1 1 25 0;
#X connect 2 0 45 0;
#X connect 3 0 7 1;
#X connect 4 0 8 1;
#X connect 5 0 3 1;
#X connect 5 1 4 1;
#X connect 6 0 0 0;
#X connect 6 1 5 0;
#X connect 7 0 12 0;
#X connect 8 0 19 0;
#X connect 9 0 14 0;
#X connect 9 1 21 0;
#X connect 10 0 1 0;
#X connect 11 0 14 1;
#X connect 12 0 15 0;
#X connect 12 1 11 0;
#X connect 12 2 13 0;
#X connect 13 0 11 1;
#X connect 13 0 17 1;
#X connect 14 0 13 1;
#X connect 15 0 16 0;
#X connect 16 0 28 0;
#X connect 17 0 15 1;
#X connect 18 0 21 1;
#X connect 19 0 22 0;
#X connect 19 1 18 0;
#X connect 19 2 20 0;
#X connect 20 0 18 1;
#X connect 20 0 24 1;
#X connect 21 0 20 1;
#X connect 22 0 23 0;
#X connect 23 0 27 0;
#X connect 24 0 22 1;
#X connect 25 0 17 0;
#X connect 25 1 24 0;
#X connect 25 2 3 0;
#X connect 25 3 4 0;
#X connect 26 0 6 0;
#X connect 29 0 4 1;
#X connect 30 0 3 1;
#X connect 31 0 21 1;
#X connect 32 0 14 1;
#X connect 33 0 20 1;
#X connect 34 0 13 1;
#X connect 35 0 17 1;
#X connect 36 0 40 0;
#X connect 37 0 20 1;
#X connect 38 0 24 1;
#X connect 39 0 17 1;
#X connect 39 1 24 1;
#X connect 40 0 41 0;
#X connect 40 1 39 0;
#X connect 40 2 38 0;
#X connect 40 3 37 0;
#X connect 40 4 35 0;
#X connect 40 5 34 0;
#X connect 40 6 33 0;
#X connect 40 7 32 0;
#X connect 40 8 31 0;
#X connect 40 9 30 0;
#X connect 40 10 29 0;
#X connect 41 0 42 0;
#X connect 41 1 43 0;
#X connect 41 2 17 0;
#X connect 41 3 24 0;
#X connect 42 0 15 0;
#X connect 43 0 22 0;
#X connect 45 0 44 0;
#X connect 45 1 9 0;
