#N canvas 569 202 519 399 10;
#X obj 366 30 cnv 15 100 60 empty empty empty 20 12 0 14 -195568 -66577
0;
#N canvas 0 22 450 300 gemwin 0;
#X obj 132 136 gemwin;
#X obj 67 89 outlet;
#X obj 67 10 inlet;
#X obj 67 41 route create;
#X msg 67 70 set destroy;
#X msg 142 68 set create;
#X msg 198 112 destroy;
#X msg 132 112 create \, 1;
#X connect 2 0 3 0;
#X connect 3 0 4 0;
#X connect 3 0 7 0;
#X connect 3 1 5 0;
#X connect 3 1 6 0;
#X connect 4 0 1 0;
#X connect 5 0 1 0;
#X connect 6 0 0 0;
#X connect 7 0 0 0;
#X restore 371 69 pd gemwin;
#X msg 371 50 destroy;
#X text 367 29 Create window:;
#X obj 30 23 gemhead;
#X obj 75 253 pack f f f f f f f f f f f f f f f f;
#X obj 75 218 bondo 16 ---------------------------;
#N canvas 775 226 508 359 (subpatch) 0;
#X floatatom 117 112 5 0 0 0 X - -;
#X floatatom 117 137 5 0 0 0 Y - -;
#X floatatom 175 112 5 0 0 0 X - -;
#X floatatom 175 137 5 0 0 0 Y - -;
#X floatatom 117 162 5 0 0 0 X - -;
#X floatatom 117 187 5 0 0 0 Y - -;
#X floatatom 175 162 5 0 0 0 X - -;
#X floatatom 175 187 5 0 0 0 Y - -;
#X obj 93 247 outlet;
#X obj 141 247 outlet;
#X obj 190 247 outlet;
#X obj 238 247 outlet;
#X obj 291 245 outlet;
#X obj 339 245 outlet;
#X obj 392 244 outlet;
#X obj 440 244 outlet;
#X connect 0 0 14 0;
#X connect 1 0 15 0;
#X connect 2 0 12 0;
#X connect 2 0 6 0;
#X connect 3 0 13 0;
#X connect 4 0 8 0;
#X connect 5 0 9 0;
#X connect 6 0 10 0;
#X connect 7 0 11 0;
#X coords 0 -1 1 1 120 120 1 100 100;
#X restore 82 81 pd;
#N canvas 831 188 508 359 (subpatch) 0;
#X floatatom 117 112 5 0 0 0 X - -;
#X floatatom 117 137 5 0 0 0 Y - -;
#X floatatom 175 112 5 0 0 0 X - -;
#X floatatom 175 137 5 0 0 0 Y - -;
#X floatatom 117 162 5 0 0 0 X - -;
#X floatatom 117 187 5 0 0 0 Y - -;
#X floatatom 175 162 5 0 0 0 X - -;
#X floatatom 175 187 5 0 0 0 Y - -;
#X obj 93 247 outlet;
#X obj 141 247 outlet;
#X obj 190 247 outlet;
#X obj 238 247 outlet;
#X obj 291 245 outlet;
#X obj 339 245 outlet;
#X obj 392 244 outlet;
#X obj 440 244 outlet;
#X connect 0 0 14 0;
#X connect 1 0 15 0;
#X connect 2 0 12 0;
#X connect 3 0 13 0;
#X connect 4 0 8 0;
#X connect 5 0 9 0;
#X connect 6 0 10 0;
#X connect 7 0 11 0;
#X coords 0 -1 1 1 120 120 1 100 100;
#X restore 210 81 pd;
#X obj 30 284 fux_homo;
#X obj 30 52 separator;
#X obj 30 350 square 2;
#X connect 1 0 2 0;
#X connect 2 0 1 0;
#X connect 4 0 10 0;
#X connect 5 0 9 1;
#X connect 6 0 5 0;
#X connect 6 1 5 1;
#X connect 6 2 5 2;
#X connect 6 3 5 3;
#X connect 6 4 5 4;
#X connect 6 5 5 5;
#X connect 6 6 5 6;
#X connect 6 7 5 7;
#X connect 6 8 5 8;
#X connect 6 9 5 9;
#X connect 6 10 5 10;
#X connect 6 11 5 11;
#X connect 6 12 5 12;
#X connect 6 13 5 13;
#X connect 6 14 5 14;
#X connect 6 15 5 15;
#X connect 7 0 6 0;
#X connect 7 1 6 1;
#X connect 7 2 6 2;
#X connect 7 3 6 3;
#X connect 7 4 6 4;
#X connect 7 5 6 5;
#X connect 7 6 6 6;
#X connect 7 7 6 7;
#X connect 8 0 6 8;
#X connect 8 1 6 9;
#X connect 8 2 6 10;
#X connect 8 3 6 11;
#X connect 8 4 6 12;
#X connect 8 5 6 13;
#X connect 8 6 6 14;
#X connect 8 7 6 15;
#X connect 9 0 11 0;
#X connect 10 0 9 0;
