#N canvas -67 28 1425 837 10;
#X obj 327 6 cnv 15 100 60 empty empty empty 20 12 0 14 -195568 -66577
0;
#N canvas 0 22 450 300 gemwin 1;
#X obj 132 136 gemwin;
#X obj 67 89 outlet;
#X obj 67 10 inlet;
#X obj 67 41 route create;
#X msg 67 70 set destroy;
#X msg 142 68 set create;
#X msg 198 112 destroy;
#X msg 132 112 create \, 1;
#X msg 299 46 dimen 1024 768;
#X msg 320 154 border 0;
#X msg 322 83 offset 1440 -50;
#X connect 2 0 3 0;
#X connect 3 0 4 0;
#X connect 3 0 7 0;
#X connect 3 1 5 0;
#X connect 3 1 6 0;
#X connect 4 0 1 0;
#X connect 5 0 1 0;
#X connect 6 0 0 0;
#X connect 7 0 0 0;
#X connect 8 0 0 0;
#X connect 9 0 0 0;
#X connect 10 0 0 0;
#X restore 332 45 pd gemwin;
#X msg 332 26 destroy;
#X text 328 5 Create window:;
#X obj 134 389 pack f f f f f f f f f f f f f f f f;
#X obj 134 354 bondo 16 ---------------------------;
#N canvas 775 226 508 359 (subpatch) 0;
#X floatatom 117 112 5 0 0 0 X - -;
#X floatatom 117 137 5 0 0 0 Y - -;
#X floatatom 175 112 5 0 0 0 X - -;
#X floatatom 175 137 5 0 0 0 Y - -;
#X floatatom 117 162 5 0 0 0 X - -;
#X floatatom 117 187 5 0 0 0 Y - -;
#X floatatom 175 162 5 0 0 0 X - -;
#X floatatom 175 187 5 0 0 0 Y - -;
#X obj 93 247 outlet;
#X obj 141 247 outlet;
#X obj 190 247 outlet;
#X obj 238 247 outlet;
#X obj 291 245 outlet;
#X obj 339 245 outlet;
#X obj 392 244 outlet;
#X obj 440 244 outlet;
#X connect 0 0 14 0;
#X connect 1 0 15 0;
#X connect 2 0 12 0;
#X connect 2 0 6 0;
#X connect 3 0 13 0;
#X connect 4 0 8 0;
#X connect 5 0 9 0;
#X connect 6 0 10 0;
#X connect 7 0 11 0;
#X coords 0 -1 1 1 120 120 1 100 100;
#X restore 125 217 pd;
#N canvas 831 188 508 359 (subpatch) 0;
#X floatatom 117 112 5 0 0 0 X - -;
#X floatatom 117 137 5 0 0 0 Y - -;
#X floatatom 175 112 5 0 0 0 X - -;
#X floatatom 175 137 5 0 0 0 Y - -;
#X floatatom 117 162 5 0 0 0 X - -;
#X floatatom 117 187 5 0 0 0 Y - -;
#X floatatom 175 162 5 0 0 0 X - -;
#X floatatom 175 187 5 0 0 0 Y - -;
#X obj 93 247 outlet;
#X obj 141 247 outlet;
#X obj 190 247 outlet;
#X obj 238 247 outlet;
#X obj 291 245 outlet;
#X obj 339 245 outlet;
#X obj 392 244 outlet;
#X obj 440 244 outlet;
#X connect 0 0 14 0;
#X connect 1 0 15 0;
#X connect 2 0 12 0;
#X connect 3 0 13 0;
#X connect 4 0 8 0;
#X connect 5 0 9 0;
#X connect 6 0 10 0;
#X connect 7 0 11 0;
#X coords 0 -1 1 1 120 120 1 100 100;
#X restore 253 217 pd;
#X obj 33 457 fux_homo;
#X obj 43 178 separator;
#X obj 33 556 square 2;
#X floatatom 78 535 5 0 0 0 - - -;
#X obj 33 516 spigot;
#X obj 66 495 tgl 15 0 empty empty empty 17 7 0 10 -262144 -1 -1 1
1;
#X obj 33 26 gemhead 55;
#X obj 120 153 tgl 15 0 empty empty empty 17 7 0 10 -262144 -1 -1 0
1;
#X obj 35 252 pix_texture;
#X obj 62 74 ortho;
#X obj 62 48 tgl 15 0 empty empty empty 17 7 0 10 -262144 -1 -1 0 1
;
#X obj 429 162 gemframebuffer;
#X obj 559 328 cnv 15 300 60 empty empty empty 20 12 0 14 -191407 -66577
0;
#X obj 561 53 cnv 15 400 250 empty empty empty 20 12 0 14 -24198 -66577
0;
#X obj 564 76 gemhead 20;
#X msg 702 141 dimen 320 240;
#X obj 564 503 rotateXYZ;
#X msg 849 149 color 0 0 1 0;
#X msg 689 122 dimen 1024 1024;
#X msg 838 109 color 0 0 0 0;
#X obj 564 457 t a b;
#X msg 636 267 rectangle \$1;
#X obj 636 249 tgl 15 0 empty empty empty 0 -6 0 8 -262144 -1 -1 0
1;
#X msg 596 136 type FLOAT;
#X obj 564 417 translateXYZ 0 0 -4;
#X obj 564 333 gemframebuffer;
#X msg 618 222 texunit \$1;
#X msg 582 97 type BYTE;
#X msg 590 117 type INT;
#X msg 745 214 format YUV;
#X msg 736 193 format RGB;
#X msg 755 235 format RGBA;
#X msg 767 255 format RGB32;
#X obj 564 522 pqtorusknots;
#N canvas 0 22 450 300 rotation 0;
#X obj 33 19 inlet;
#X obj 33 110 % 360;
#X obj 33 62 i;
#X obj 33 88 + 5;
#X obj 33 136 outlet;
#X obj 84 111 % 360;
#X obj 84 63 i;
#X obj 84 137 outlet;
#X obj 134 112 % 360;
#X obj 134 64 i;
#X obj 134 138 outlet;
#X obj 84 89 + 3;
#X obj 134 90 + 7;
#X connect 0 0 2 0;
#X connect 0 0 6 0;
#X connect 0 0 9 0;
#X connect 1 0 2 1;
#X connect 1 0 4 0;
#X connect 2 0 3 0;
#X connect 3 0 1 0;
#X connect 5 0 6 1;
#X connect 5 0 7 0;
#X connect 6 0 11 0;
#X connect 8 0 9 1;
#X connect 8 0 10 0;
#X connect 9 0 12 0;
#X connect 11 0 5 0;
#X connect 12 0 8 0;
#X restore 596 478 pd rotation;
#X floatatom 618 202 5 0 0 0 - - -;
#X obj 849 128 loadbang;
#X obj 564 437 color 1 0 0;
#X obj 736 280 t a;
#X obj 672 159 t a;
#X obj 838 170 t a;
#X obj 582 165 t a;
#X floatatom 650 396 5 0 0 0 - - -;
#X floatatom 694 397 5 0 0 0 - - -;
#X floatatom 607 396 5 0 0 0 - - -;
#X obj 582 189 t a;
#X text 563 57 Example:;
#X obj 643 76 tgl 15 0 empty empty empty 17 7 0 10 -262144 -1 -1 0
1;
#X floatatom 580 358 5 0 0 0 - - -;
#X obj 564 377 scaleXYZ;
#X floatatom 650 361 5 0 0 0 - - -;
#X floatatom 615 360 5 0 0 0 - - -;
#X msg 672 65 perspec -1 1 -1 1 1 20;
#X msg 680 91 perspec -1 1 -1 1 3 75;
#X text 839 64 default;
#X obj 492 389 text2d;
#X floatatom 721 704 5 0 100 1 size - -;
#X msg 694 569 font \$1;
#X obj 694 550 openpanel;
#X obj 694 533 bng 15 250 50 0 empty empty empty 0 -6 0 8 -262144 -1
-1;
#X msg 706 614 1 2 3 4;
#X msg 710 655 alias \$1;
#X obj 710 637 tgl 15 0 empty empty empty 0 -6 0 8 -262144 -1 -1 0
1;
#X msg 711 681 justify left base;
#X obj 684 506 translateXYZ;
#X floatatom 788 489 5 -10 10 0 - - -;
#X floatatom 747 484 3 -3.5 3.5 0 - - -;
#X obj 684 725 text2d;
#X obj 262 798 pack f f f f f f f f f f f f f f f f;
#X obj 262 763 bondo 16 ---------------------------;
#N canvas 775 226 508 359 (subpatch) 0;
#X floatatom 117 112 5 0 0 0 X - -;
#X floatatom 117 137 5 0 0 0 Y - -;
#X floatatom 175 112 5 0 0 0 X - -;
#X floatatom 175 137 5 0 0 0 Y - -;
#X floatatom 117 162 5 0 0 0 X - -;
#X floatatom 117 187 5 0 0 0 Y - -;
#X floatatom 175 162 5 0 0 0 X - -;
#X floatatom 175 187 5 0 0 0 Y - -;
#X obj 93 247 outlet;
#X obj 141 247 outlet;
#X obj 190 247 outlet;
#X obj 238 247 outlet;
#X obj 291 245 outlet;
#X obj 339 245 outlet;
#X obj 392 244 outlet;
#X obj 440 244 outlet;
#X connect 0 0 14 0;
#X connect 1 0 15 0;
#X connect 2 0 12 0;
#X connect 2 0 6 0;
#X connect 3 0 13 0;
#X connect 4 0 8 0;
#X connect 5 0 9 0;
#X connect 6 0 10 0;
#X connect 7 0 11 0;
#X coords 0 -1 1 1 120 120 1 100 100;
#X restore 253 626 pd;
#N canvas 831 188 508 359 (subpatch) 0;
#X floatatom 117 112 5 0 0 0 X - -;
#X floatatom 117 137 5 0 0 0 Y - -;
#X floatatom 175 112 5 0 0 0 X - -;
#X floatatom 175 137 5 0 0 0 Y - -;
#X floatatom 117 162 5 0 0 0 X - -;
#X floatatom 117 187 5 0 0 0 Y - -;
#X floatatom 175 162 5 0 0 0 X - -;
#X floatatom 175 187 5 0 0 0 Y - -;
#X obj 93 247 outlet;
#X obj 141 247 outlet;
#X obj 190 247 outlet;
#X obj 238 247 outlet;
#X obj 291 245 outlet;
#X obj 339 245 outlet;
#X obj 392 244 outlet;
#X obj 440 244 outlet;
#X connect 0 0 14 0;
#X connect 1 0 15 0;
#X connect 2 0 12 0;
#X connect 3 0 13 0;
#X connect 4 0 8 0;
#X connect 5 0 9 0;
#X connect 6 0 10 0;
#X connect 7 0 11 0;
#X coords 0 -1 1 1 120 120 1 100 100;
#X restore 381 626 pd;
#X obj 161 866 fux_homo;
#X obj 171 587 separator;
#X obj 161 965 square 2;
#X floatatom 206 944 5 0 0 0 - - -;
#X obj 161 925 spigot;
#X obj 194 904 tgl 15 0 empty empty empty 17 7 0 10 -262144 -1 -1 0
1;
#X obj 161 435 gemhead 55;
#X obj 248 562 tgl 15 0 empty empty empty 17 7 0 10 -262144 -1 -1 0
1;
#X obj 163 661 pix_texture;
#X obj 190 483 ortho;
#X obj 190 457 tgl 15 0 empty empty empty 17 7 0 10 -262144 -1 -1 0
1;
#X obj 552 713 gemhead 55;
#X obj 581 761 ortho;
#X obj 581 735 tgl 15 0 empty empty empty 17 7 0 10 -262144 -1 -1 0
1;
#X msg 702 595 text freemapping;
#X obj 842 424;
#X obj 148 1314 pack f f f f f f f f f f f f f f f f;
#X obj 148 1279 bondo 16 ---------------------------;
#N canvas 775 226 508 359 (subpatch) 0;
#X floatatom 117 112 5 0 0 0 X - -;
#X floatatom 117 137 5 0 0 0 Y - -;
#X floatatom 175 112 5 0 0 0 X - -;
#X floatatom 175 137 5 0 0 0 Y - -;
#X floatatom 117 162 5 0 0 0 X - -;
#X floatatom 117 187 5 0 0 0 Y - -;
#X floatatom 175 162 5 0 0 0 X - -;
#X floatatom 175 187 5 0 0 0 Y - -;
#X obj 93 247 outlet;
#X obj 141 247 outlet;
#X obj 190 247 outlet;
#X obj 238 247 outlet;
#X obj 291 245 outlet;
#X obj 339 245 outlet;
#X obj 392 244 outlet;
#X obj 440 244 outlet;
#X connect 0 0 14 0;
#X connect 1 0 15 0;
#X connect 2 0 12 0;
#X connect 2 0 6 0;
#X connect 3 0 13 0;
#X connect 4 0 8 0;
#X connect 5 0 9 0;
#X connect 6 0 10 0;
#X connect 7 0 11 0;
#X coords 0 -1 1 1 120 120 1 100 100;
#X restore 139 1142 pd;
#N canvas 831 188 508 359 (subpatch) 0;
#X floatatom 117 112 5 0 0 0 X - -;
#X floatatom 117 137 5 0 0 0 Y - -;
#X floatatom 175 112 5 0 0 0 X - -;
#X floatatom 175 137 5 0 0 0 Y - -;
#X floatatom 117 162 5 0 0 0 X - -;
#X floatatom 117 187 5 0 0 0 Y - -;
#X floatatom 175 162 5 0 0 0 X - -;
#X floatatom 175 187 5 0 0 0 Y - -;
#X obj 93 247 outlet;
#X obj 141 247 outlet;
#X obj 190 247 outlet;
#X obj 238 247 outlet;
#X obj 291 245 outlet;
#X obj 339 245 outlet;
#X obj 392 244 outlet;
#X obj 440 244 outlet;
#X connect 0 0 14 0;
#X connect 1 0 15 0;
#X connect 2 0 12 0;
#X connect 3 0 13 0;
#X connect 4 0 8 0;
#X connect 5 0 9 0;
#X connect 6 0 10 0;
#X connect 7 0 11 0;
#X coords 0 -1 1 1 120 120 1 100 100;
#X restore 267 1142 pd;
#X obj 47 1382 fux_homo;
#X obj 47 1481 square 2;
#X floatatom 92 1460 5 0 0 0 - - -;
#X obj 47 1441 spigot;
#X obj 80 1420 tgl 15 0 empty empty empty 17 7 0 10 -262144 -1 -1 1
1;
#X obj 47 951 gemhead 55;
#X obj 540 1043 tgl 15 0 empty empty empty 17 7 0 10 -262144 -1 -1
0 1;
#X obj 76 999 ortho;
#X obj 76 973 tgl 15 0 empty empty empty 17 7 0 10 -262144 -1 -1 0
1;
#X obj 794 785 pix_movie;
#X obj 959 405 cnv 15 250 450 empty empty empty 20 12 0 14 -228992
-66577 0;
#X obj 961 436 cnv 15 155 200 empty empty empty 20 12 0 14 -24198 -66577
0;
#X obj 972 441 bng 25 250 50 0 empty empty empty 0 -6 0 8 -262144 -1
-1;
#X text 1015 405 open a supported;
#X text 1016 416 movie-clip;
#X obj 990 725 unpack 0 0 0;
#X floatatom 976 748 5 0 0 3 length - -;
#X floatatom 1025 748 5 0 0 3 width - -;
#X floatatom 1075 748 5 0 0 3 height - -;
#X obj 1030 706 bng 15 250 50 0 empty empty end_reached 20 7 0 10 -262144
-1 -1;
#X obj 972 470 openpanel;
#X msg 972 490 open \$1;
#X msg 1000 547 auto \$1;
#X obj 1000 529 tgl 15 0 empty empty empty 0 -6 0 8 -262144 -1 -1 1
1;
#X msg 1011 571 colorspace Grey;
#X obj 1023 595 tgl 15 0 empty empty empty 0 -6 0 8 -262144 -1 -1 1
1;
#X obj 1015 648 hsl 128 15 0 127 0 0 empty empty empty -2 -8 0 10 -262144
-1 -1 4100 1;
#X floatatom 1012 668 5 0 0 1 frame_number - -;
#N canvas 830 50 450 300 demo 0;
#X obj 23 26 inlet;
#X text 126 127 win32:;
#X text 116 190 linux \, os-X:;
#X obj 79 257 outlet;
#X obj 20 50 bng 17 250 50 0 empty empty empty 17 7 0 10 -262144 -1
-1;
#X obj 38 51 cnv 15 81 15 empty empty demo_movie 4 8 0 10 -262144 -1
0;
#X msg 29 102 open ../../doc/gem/examples/data/alea.mpg;
#X msg 151 147 open ../../doc/gem/examples/data/homer.avi;
#X msg 144 210 open ../../doc/gem/examples/data/anim-1.mov;
#X connect 0 0 4 0;
#X connect 4 0 6 0;
#X connect 6 0 3 0;
#X connect 7 0 3 0;
#X connect 8 0 3 0;
#X coords 0 -1 1 1 100 17 1 20 50;
#X restore 984 510 pd demo movie;
#X msg 1023 614 rectangle \$1;
#X obj 773 922 pix_texture;
#X obj 961 411 gemhead 55;
#X obj 961 689 pix_film;
#X obj 593 1104 pix_texture;
#X obj 1016 -51 cnv 15 250 450 empty empty empty 20 12 0 14 -228992
-66577 0;
#X obj 1018 -20 cnv 15 155 200 empty empty empty 20 12 0 14 -24198
-66577 0;
#X obj 1029 -15 bng 25 250 50 0 empty empty empty 0 -6 0 8 -262144
-1 -1;
#X text 1072 -51 open a supported;
#X text 1073 -40 movie-clip;
#X obj 1047 269 unpack 0 0 0;
#X floatatom 1033 292 5 0 0 3 length - -;
#X floatatom 1082 292 5 0 0 3 width - -;
#X floatatom 1132 292 5 0 0 3 height - -;
#X obj 1087 250 bng 15 250 50 0 empty empty end_reached 20 7 0 10 -262144
-1 -1;
#X obj 1029 14 openpanel;
#X msg 1029 34 open \$1;
#X msg 1057 91 auto \$1;
#X obj 1057 73 tgl 15 0 empty empty empty 0 -6 0 8 -262144 -1 -1 1
1;
#X msg 1068 115 colorspace Grey;
#X obj 1080 139 tgl 15 0 empty empty empty 0 -6 0 8 -262144 -1 -1 0
1;
#X obj 1072 192 hsl 128 15 0 127 0 0 empty empty empty -2 -8 0 10 -262144
-1 -1 0 1;
#X floatatom 1069 212 5 0 0 1 frame_number - -;
#N canvas 830 50 450 300 demo 0;
#X obj 23 26 inlet;
#X text 126 127 win32:;
#X text 116 190 linux \, os-X:;
#X obj 79 257 outlet;
#X obj 20 50 bng 17 250 50 0 empty empty empty 17 7 0 10 -262144 -1
-1;
#X obj 38 51 cnv 15 81 15 empty empty demo_movie 4 8 0 10 -262144 -1
0;
#X msg 29 102 open ../../doc/gem/examples/data/alea.mpg;
#X msg 151 147 open ../../doc/gem/examples/data/homer.avi;
#X msg 144 210 open ../../doc/gem/examples/data/anim-1.mov;
#X connect 0 0 4 0;
#X connect 4 0 6 0;
#X connect 6 0 3 0;
#X connect 7 0 3 0;
#X connect 8 0 3 0;
#X coords 0 -1 1 1 100 17 1 20 50;
#X restore 1041 54 pd demo movie;
#X msg 1080 158 rectangle \$1;
#X obj 1018 -45 gemhead 55;
#X obj 1018 233 pix_film;
#X obj 150 102 pix_texture;
#X obj 1272 429 cnv 15 250 450 empty empty empty 20 12 0 14 -228992
-66577 0;
#X obj 1274 460 cnv 15 155 200 empty empty empty 20 12 0 14 -24198
-66577 0;
#X obj 1285 465 bng 25 250 50 0 empty empty empty 0 -6 0 8 -262144
-1 -1;
#X text 1328 429 open a supported;
#X text 1329 440 movie-clip;
#X obj 1303 749 unpack 0 0 0;
#X floatatom 1289 772 5 0 0 3 length - -;
#X floatatom 1338 772 5 0 0 3 width - -;
#X floatatom 1388 772 5 0 0 3 height - -;
#X obj 1343 730 bng 15 250 50 0 empty empty end_reached 20 7 0 10 -262144
-1 -1;
#X obj 1285 494 openpanel;
#X msg 1285 514 open \$1;
#X msg 1313 571 auto \$1;
#X obj 1313 553 tgl 15 0 empty empty empty 0 -6 0 8 -262144 -1 -1 1
1;
#X msg 1324 595 colorspace Grey;
#X obj 1336 619 tgl 15 0 empty empty empty 0 -6 0 8 -262144 -1 -1 0
1;
#X obj 1328 672 hsl 128 15 0 127 0 0 empty empty empty -2 -8 0 10 -262144
-1 -1 0 1;
#X floatatom 1325 692 5 0 0 1 frame_number - -;
#N canvas 830 50 450 300 demo 0;
#X obj 23 26 inlet;
#X text 126 127 win32:;
#X text 116 190 linux \, os-X:;
#X obj 79 257 outlet;
#X obj 20 50 bng 17 250 50 0 empty empty empty 17 7 0 10 -262144 -1
-1;
#X obj 38 51 cnv 15 81 15 empty empty demo_movie 4 8 0 10 -262144 -1
0;
#X msg 29 102 open ../../doc/gem/examples/data/alea.mpg;
#X msg 151 147 open ../../doc/gem/examples/data/homer.avi;
#X msg 144 210 open ../../doc/gem/examples/data/anim-1.mov;
#X connect 0 0 4 0;
#X connect 4 0 6 0;
#X connect 6 0 3 0;
#X connect 7 0 3 0;
#X connect 8 0 3 0;
#X coords 0 -1 1 1 100 17 1 20 50;
#X restore 1297 534 pd demo movie;
#X msg 1336 638 rectangle \$1;
#X obj 1274 435 gemhead 55;
#X obj 1274 713 pix_film;
#X obj 1193 913 pix_texture;
#X obj 1178 1342 pack f f f f f f f f f f f f f f f f;
#X obj 1178 1307 bondo 16 ---------------------------;
#N canvas 775 226 508 359 (subpatch) 0;
#X floatatom 117 112 5 0 0 0 X - -;
#X floatatom 117 137 5 0 0 0 Y - -;
#X floatatom 175 112 5 0 0 0 X - -;
#X floatatom 175 137 5 0 0 0 Y - -;
#X floatatom 117 162 5 0 0 0 X - -;
#X floatatom 117 187 5 0 0 0 Y - -;
#X floatatom 175 162 5 0 0 0 X - -;
#X floatatom 175 187 5 0 0 0 Y - -;
#X obj 93 247 outlet;
#X obj 141 247 outlet;
#X obj 190 247 outlet;
#X obj 238 247 outlet;
#X obj 291 245 outlet;
#X obj 339 245 outlet;
#X obj 392 244 outlet;
#X obj 440 244 outlet;
#X connect 0 0 14 0;
#X connect 1 0 15 0;
#X connect 2 0 12 0;
#X connect 2 0 6 0;
#X connect 3 0 13 0;
#X connect 4 0 8 0;
#X connect 5 0 9 0;
#X connect 6 0 10 0;
#X connect 7 0 11 0;
#X coords 0 -1 1 1 120 120 1 100 100;
#X restore 1169 1170 pd;
#N canvas 831 188 508 359 (subpatch) 0;
#X floatatom 117 112 5 0 0 0 X - -;
#X floatatom 117 137 5 0 0 0 Y - -;
#X floatatom 175 112 5 0 0 0 X - -;
#X floatatom 175 137 5 0 0 0 Y - -;
#X floatatom 117 162 5 0 0 0 X - -;
#X floatatom 117 187 5 0 0 0 Y - -;
#X floatatom 175 162 5 0 0 0 X - -;
#X floatatom 175 187 5 0 0 0 Y - -;
#X obj 93 247 outlet;
#X obj 141 247 outlet;
#X obj 190 247 outlet;
#X obj 238 247 outlet;
#X obj 291 245 outlet;
#X obj 339 245 outlet;
#X obj 392 244 outlet;
#X obj 440 244 outlet;
#X connect 0 0 14 0;
#X connect 1 0 15 0;
#X connect 2 0 12 0;
#X connect 3 0 13 0;
#X connect 4 0 8 0;
#X connect 5 0 9 0;
#X connect 6 0 10 0;
#X connect 7 0 11 0;
#X coords 0 -1 1 1 120 120 1 100 100;
#X restore 1297 1170 pd;
#X obj 1077 1410 fux_homo;
#X obj 1087 1131 separator;
#X obj 1077 1509 square 2;
#X floatatom 1122 1488 5 0 0 0 - - -;
#X obj 1077 1469 spigot;
#X obj 1110 1448 tgl 15 0 empty empty empty 17 7 0 10 -262144 -1 -1
0 1;
#X obj 1077 979 gemhead 55;
#X obj 1164 1106 tgl 15 0 empty empty empty 17 7 0 10 -262144 -1 -1
0 1;
#X obj 1079 1205 pix_texture;
#X obj 1106 1027 ortho;
#X obj 1106 1001 tgl 15 0 empty empty empty 17 7 0 10 -262144 -1 -1
0 1;
#X obj 1564 553 cnv 15 250 450 empty empty empty 20 12 0 14 -228992
-66577 0;
#X obj 1566 584 cnv 15 155 200 empty empty empty 20 12 0 14 -24198
-66577 0;
#X obj 1577 589 bng 25 250 50 0 empty empty empty 0 -6 0 8 -262144
-1 -1;
#X text 1620 553 open a supported;
#X text 1621 564 movie-clip;
#X obj 1595 873 unpack 0 0 0;
#X floatatom 1581 896 5 0 0 3 length - -;
#X floatatom 1630 896 5 0 0 3 width - -;
#X floatatom 1680 896 5 0 0 3 height - -;
#X obj 1635 854 bng 15 250 50 0 empty empty end_reached 20 7 0 10 -262144
-1 -1;
#X obj 1577 618 openpanel;
#X msg 1577 638 open \$1;
#X msg 1605 695 auto \$1;
#X obj 1605 677 tgl 15 0 empty empty empty 0 -6 0 8 -262144 -1 -1 1
1;
#X msg 1616 719 colorspace Grey;
#X obj 1628 743 tgl 15 0 empty empty empty 0 -6 0 8 -262144 -1 -1 0
1;
#X obj 1620 796 hsl 128 15 0 127 0 0 empty empty empty -2 -8 0 10 -262144
-1 -1 0 1;
#X floatatom 1617 816 5 0 0 1 frame_number - -;
#N canvas 830 50 450 300 demo 0;
#X obj 23 26 inlet;
#X text 126 127 win32:;
#X text 116 190 linux \, os-X:;
#X obj 79 257 outlet;
#X obj 20 50 bng 17 250 50 0 empty empty empty 17 7 0 10 -262144 -1
-1;
#X obj 38 51 cnv 15 81 15 empty empty demo_movie 4 8 0 10 -262144 -1
0;
#X msg 29 102 open ../../doc/gem/examples/data/alea.mpg;
#X msg 151 147 open ../../doc/gem/examples/data/homer.avi;
#X msg 144 210 open ../../doc/gem/examples/data/anim-1.mov;
#X connect 0 0 4 0;
#X connect 4 0 6 0;
#X connect 6 0 3 0;
#X connect 7 0 3 0;
#X connect 8 0 3 0;
#X coords 0 -1 1 1 100 17 1 20 50;
#X restore 1589 658 pd demo movie;
#X msg 1628 762 rectangle \$1;
#X obj 1566 559 gemhead 55;
#X obj 1566 837 pix_film;
#X obj 1485 1037 pix_texture;
#X obj 873 1308 tgl 15 0 empty empty empty 17 7 0 10 -262144 -1 -1
1 1;
#X obj 895 1308 tgl 15 0 empty empty empty 17 7 0 10 -262144 -1 -1
0 1;
#X obj 917 1308 tgl 15 0 empty empty empty 17 7 0 10 -262144 -1 -1
1 1;
#X obj 939 1310 tgl 15 0 empty empty empty 17 7 0 10 -262144 -1 -1
0 1;
#X connect 1 0 2 0;
#X connect 2 0 1 0;
#X connect 4 0 8 1;
#X connect 5 0 4 0;
#X connect 5 1 4 1;
#X connect 5 2 4 2;
#X connect 5 3 4 3;
#X connect 5 4 4 4;
#X connect 5 5 4 5;
#X connect 5 6 4 6;
#X connect 5 7 4 7;
#X connect 5 8 4 8;
#X connect 5 9 4 9;
#X connect 5 10 4 10;
#X connect 5 11 4 11;
#X connect 5 12 4 12;
#X connect 5 13 4 13;
#X connect 5 14 4 14;
#X connect 5 15 4 15;
#X connect 6 0 5 0;
#X connect 6 1 5 1;
#X connect 6 2 5 2;
#X connect 6 3 5 3;
#X connect 6 4 5 4;
#X connect 6 5 5 5;
#X connect 6 6 5 6;
#X connect 6 7 5 7;
#X connect 7 0 5 8;
#X connect 7 1 5 9;
#X connect 7 2 5 10;
#X connect 7 3 5 11;
#X connect 7 4 5 12;
#X connect 7 5 5 13;
#X connect 7 6 5 14;
#X connect 7 7 5 15;
#X connect 8 0 12 0;
#X connect 9 0 16 0;
#X connect 11 0 10 1;
#X connect 12 0 10 0;
#X connect 13 0 12 1;
#X connect 14 0 17 0;
#X connect 16 0 8 0;
#X connect 17 0 9 0;
#X connect 18 0 17 0;
#X connect 22 0 33 0;
#X connect 23 0 47 0;
#X connect 24 0 41 0;
#X connect 25 0 48 0;
#X connect 26 0 47 0;
#X connect 27 0 48 0;
#X connect 28 0 24 0;
#X connect 28 1 42 0;
#X connect 29 0 33 0;
#X connect 30 0 29 0;
#X connect 31 0 49 0;
#X connect 32 0 45 0;
#X connect 33 0 57 0;
#X connect 33 0 72 0;
#X connect 34 0 33 0;
#X connect 35 0 49 0;
#X connect 36 0 49 0;
#X connect 37 0 46 0;
#X connect 38 0 46 0;
#X connect 39 0 46 0;
#X connect 40 0 46 0;
#X connect 42 0 24 1;
#X connect 42 1 24 2;
#X connect 42 2 24 3;
#X connect 43 0 34 0;
#X connect 44 0 25 0;
#X connect 45 0 28 0;
#X connect 46 0 33 0;
#X connect 47 0 53 0;
#X connect 48 0 53 0;
#X connect 49 0 53 0;
#X connect 50 0 32 2;
#X connect 51 0 32 3;
#X connect 52 0 32 1;
#X connect 53 0 33 0;
#X connect 55 0 22 0;
#X connect 56 0 57 1;
#X connect 57 0 32 0;
#X connect 58 0 57 3;
#X connect 59 0 57 2;
#X connect 60 0 47 0;
#X connect 61 0 47 0;
#X connect 64 0 75 1;
#X connect 65 0 75 0;
#X connect 66 0 65 0;
#X connect 67 0 66 0;
#X connect 68 0 75 0;
#X connect 69 0 75 0;
#X connect 70 0 69 0;
#X connect 71 0 75 0;
#X connect 72 0 75 0;
#X connect 73 0 72 3;
#X connect 74 0 72 1;
#X connect 76 0 80 1;
#X connect 77 0 76 0;
#X connect 77 1 76 1;
#X connect 77 2 76 2;
#X connect 77 3 76 3;
#X connect 77 4 76 4;
#X connect 77 5 76 5;
#X connect 77 6 76 6;
#X connect 77 7 76 7;
#X connect 77 8 76 8;
#X connect 77 9 76 9;
#X connect 77 10 76 10;
#X connect 77 11 76 11;
#X connect 77 12 76 12;
#X connect 77 13 76 13;
#X connect 77 14 76 14;
#X connect 77 15 76 15;
#X connect 78 0 77 0;
#X connect 78 1 77 1;
#X connect 78 2 77 2;
#X connect 78 3 77 3;
#X connect 78 4 77 4;
#X connect 78 5 77 5;
#X connect 78 6 77 6;
#X connect 78 7 77 7;
#X connect 79 0 77 8;
#X connect 79 1 77 9;
#X connect 79 2 77 10;
#X connect 79 3 77 11;
#X connect 79 4 77 12;
#X connect 79 5 77 13;
#X connect 79 6 77 14;
#X connect 79 7 77 15;
#X connect 80 0 84 0;
#X connect 81 0 88 0;
#X connect 83 0 82 1;
#X connect 84 0 82 0;
#X connect 85 0 84 1;
#X connect 86 0 89 0;
#X connect 88 0 80 0;
#X connect 89 0 81 0;
#X connect 90 0 89 0;
#X connect 91 0 92 0;
#X connect 93 0 92 0;
#X connect 94 0 75 0;
#X connect 96 0 100 1;
#X connect 97 0 96 0;
#X connect 97 1 96 1;
#X connect 97 2 96 2;
#X connect 97 3 96 3;
#X connect 97 4 96 4;
#X connect 97 5 96 5;
#X connect 97 6 96 6;
#X connect 97 7 96 7;
#X connect 97 8 96 8;
#X connect 97 9 96 9;
#X connect 97 10 96 10;
#X connect 97 11 96 11;
#X connect 97 12 96 12;
#X connect 97 13 96 13;
#X connect 97 14 96 14;
#X connect 97 15 96 15;
#X connect 98 0 97 0;
#X connect 98 1 97 1;
#X connect 98 2 97 2;
#X connect 98 3 97 3;
#X connect 98 4 97 4;
#X connect 98 5 97 5;
#X connect 98 6 97 6;
#X connect 98 7 97 7;
#X connect 99 0 97 8;
#X connect 99 1 97 9;
#X connect 99 2 97 10;
#X connect 99 3 97 11;
#X connect 99 4 97 12;
#X connect 99 5 97 13;
#X connect 99 6 97 14;
#X connect 99 7 97 15;
#X connect 100 0 103 0;
#X connect 102 0 101 1;
#X connect 103 0 101 0;
#X connect 104 0 103 1;
#X connect 105 0 107 0;
#X connect 107 0 133 0;
#X connect 108 0 107 0;
#X connect 112 0 120 0;
#X connect 115 0 116 0;
#X connect 115 1 117 0;
#X connect 115 2 118 0;
#X connect 120 0 121 0;
#X connect 121 0 132 0;
#X connect 122 0 132 0;
#X connect 123 0 122 0;
#X connect 124 0 132 0;
#X connect 125 0 129 0;
#X connect 126 0 127 0;
#X connect 127 0 132 1;
#X connect 128 0 132 0;
#X connect 129 0 132 0;
#X connect 130 1 133 1;
#X connect 131 0 132 0;
#X connect 132 0 130 0;
#X connect 132 1 115 0;
#X connect 132 2 119 0;
#X connect 133 0 100 0;
#X connect 136 0 144 0;
#X connect 139 0 140 0;
#X connect 139 1 141 0;
#X connect 139 2 142 0;
#X connect 144 0 145 0;
#X connect 145 0 155 0;
#X connect 146 0 155 0;
#X connect 147 0 146 0;
#X connect 148 0 155 0;
#X connect 149 0 153 0;
#X connect 150 0 151 0;
#X connect 151 0 155 1;
#X connect 152 0 155 0;
#X connect 153 0 155 0;
#X connect 154 0 155 0;
#X connect 155 0 156 0;
#X connect 155 1 139 0;
#X connect 155 2 143 0;
#X connect 156 1 16 1;
#X connect 159 0 167 0;
#X connect 162 0 163 0;
#X connect 162 1 164 0;
#X connect 162 2 165 0;
#X connect 167 0 168 0;
#X connect 168 0 178 0;
#X connect 169 0 178 0;
#X connect 170 0 169 0;
#X connect 171 0 178 0;
#X connect 172 0 176 0;
#X connect 173 0 174 0;
#X connect 174 0 178 1;
#X connect 175 0 178 0;
#X connect 176 0 178 0;
#X connect 177 0 178 0;
#X connect 178 0 179 0;
#X connect 178 1 162 0;
#X connect 178 2 166 0;
#X connect 179 1 88 1;
#X connect 180 0 184 1;
#X connect 181 0 180 0;
#X connect 181 1 180 1;
#X connect 181 2 180 2;
#X connect 181 3 180 3;
#X connect 181 4 180 4;
#X connect 181 5 180 5;
#X connect 181 6 180 6;
#X connect 181 7 180 7;
#X connect 181 8 180 8;
#X connect 181 9 180 9;
#X connect 181 10 180 10;
#X connect 181 11 180 11;
#X connect 181 12 180 12;
#X connect 181 13 180 13;
#X connect 181 14 180 14;
#X connect 181 15 180 15;
#X connect 182 0 181 0;
#X connect 182 1 181 1;
#X connect 182 2 181 2;
#X connect 182 3 181 3;
#X connect 182 4 181 4;
#X connect 182 5 181 5;
#X connect 182 6 181 6;
#X connect 182 7 181 7;
#X connect 183 0 181 8;
#X connect 183 1 181 9;
#X connect 183 2 181 10;
#X connect 183 3 181 11;
#X connect 183 4 181 12;
#X connect 183 5 181 13;
#X connect 183 6 181 14;
#X connect 183 7 181 15;
#X connect 184 0 188 0;
#X connect 185 0 192 0;
#X connect 187 0 186 1;
#X connect 188 0 186 0;
#X connect 189 0 188 1;
#X connect 190 0 193 0;
#X connect 192 0 184 0;
#X connect 193 0 185 0;
#X connect 194 0 193 0;
#X connect 197 0 205 0;
#X connect 200 0 201 0;
#X connect 200 1 202 0;
#X connect 200 2 203 0;
#X connect 205 0 206 0;
#X connect 206 0 216 0;
#X connect 207 0 216 0;
#X connect 208 0 207 0;
#X connect 209 0 216 0;
#X connect 210 0 214 0;
#X connect 211 0 212 0;
#X connect 212 0 216 1;
#X connect 213 0 216 0;
#X connect 214 0 216 0;
#X connect 215 0 216 0;
#X connect 216 0 217 0;
#X connect 216 1 200 0;
#X connect 216 2 204 0;
#X connect 217 1 192 1;
#X connect 218 0 13 0;
#X connect 219 0 85 0;
#X connect 220 0 104 0;
#X connect 221 0 189 0;
