#N canvas 649 22 548 845 10;
#X obj 65 -68 unpack f f f;
#X obj 136 12 route 0;
#X obj 136 33 change;
#X obj 114 355 i;
#X obj 177 355 i;
#X obj 156 287 unpack f f f;
#X obj 129 -102 t a a;
#X obj 65 468 -;
#X obj 321 422 -;
#X obj 136 55 t b b;
#X obj 136 -10 change;
#X obj 89 604 +;
#X obj 65 506 t a a b;
#X obj 114 564 i;
#X obj 119 506 i;
#X obj 65 698 +;
#X floatatom 65 735 5 0 0 0 - - -;
#X obj 125 739 / 10;
#X obj 86 661 i;
#X obj 340 548 +;
#X obj 321 450 t a a b;
#X obj 360 509 i;
#X obj 375 450 i;
#X obj 321 602 +;
#X floatatom 321 623 5 0 0 0 - - -;
#X obj 321 643 / 10;
#X obj 345 578 i;
#X obj 80 156 t b b b b;
#X floatatom 195 580 5 0 0 0 - - -;
#X text 192 562 SCALE;
#X obj 129 -131 inlet;
#X obj 311 679 outlet;
#X obj 117 772 outlet;
#X connect 0 0 7 0;
#X connect 0 1 8 0;
#X connect 0 2 10 0;
#X connect 1 0 2 0;
#X connect 1 1 27 0;
#X connect 2 0 9 0;
#X connect 3 0 7 1;
#X connect 4 0 8 1;
#X connect 5 0 3 1;
#X connect 5 1 4 1;
#X connect 6 0 0 0;
#X connect 6 1 5 0;
#X connect 7 0 12 0;
#X connect 8 0 20 0;
#X connect 9 0 14 0;
#X connect 9 1 22 0;
#X connect 10 0 1 0;
#X connect 11 0 14 1;
#X connect 12 0 15 0;
#X connect 12 1 11 0;
#X connect 12 2 13 0;
#X connect 13 0 11 1;
#X connect 13 0 18 1;
#X connect 14 0 13 1;
#X connect 15 0 16 0;
#X connect 16 0 17 0;
#X connect 17 0 32 0;
#X connect 18 0 15 1;
#X connect 19 0 22 1;
#X connect 20 0 23 0;
#X connect 20 1 19 0;
#X connect 20 2 21 0;
#X connect 21 0 19 1;
#X connect 21 0 26 1;
#X connect 22 0 21 1;
#X connect 23 0 24 0;
#X connect 24 0 25 0;
#X connect 25 0 31 0;
#X connect 26 0 23 1;
#X connect 27 0 18 0;
#X connect 27 1 26 0;
#X connect 27 2 3 0;
#X connect 27 3 4 0;
#X connect 28 0 17 1;
#X connect 28 0 25 1;
#X connect 30 0 6 0;
