#N canvas 592 146 716 754 10;
#X obj 447 1 adc~;
#N canvas 0 22 450 300 using 0;
#X obj 67 239 outlet~;
#X obj 65 134 biquad~;
#X obj 66 154 biquad~;
#X obj 66 174 biquad~;
#X obj 35 110 lowpass 370 310;
#X obj 194 134 biquad~;
#X obj 193 154 biquad~;
#X obj 194 174 biquad~;
#X obj 163 111 bandpass 1175 490;
#X obj 305 111 highpass 2350 130;
#X obj 334 134 biquad~;
#X obj 334 154 biquad~;
#X obj 163 25 loadbang;
#X obj 193 239 outlet~;
#X obj 335 239 outlet~;
#X obj 66 25 inlet~ signal;
#X obj 235 54 switch~;
#X obj 235 25 inlet switch;
#X connect 1 0 2 0;
#X connect 2 0 3 0;
#X connect 3 0 0 0;
#X connect 4 0 1 0;
#X connect 4 0 2 0;
#X connect 4 0 3 0;
#X connect 5 0 6 0;
#X connect 6 0 7 0;
#X connect 7 0 13 0;
#X connect 8 0 5 0;
#X connect 8 0 6 0;
#X connect 8 0 7 0;
#X connect 9 0 10 0;
#X connect 9 0 11 0;
#X connect 10 0 11 0;
#X connect 11 0 14 0;
#X connect 12 0 4 0;
#X connect 12 0 8 0;
#X connect 12 0 9 0;
#X connect 15 0 1 0;
#X connect 15 0 5 0;
#X connect 15 0 10 0;
#X connect 17 0 16 0;
#X restore 448 190 pd using GGEE filter objects;
#X obj 198 146 tgl 15 1 empty empty empty 0 -6 0 8 -258699 -1 -1 1
1;
#X obj 613 157 tgl 15 1 empty empty ON 0 -6 0 8 -258699 -1 -1 1 1;
#X obj 448 48 *~;
#X obj 530 248 env~ 2048;
#X obj 448 249 env~ 2048;
#X obj 446 372 -;
#X obj 448 297 t b a;
#X obj 407 341 f;
#X obj 530 373 -;
#X obj 532 298 t b a;
#X obj 516 340 f;
#X obj 614 338 f;
#X obj 614 294 t b a;
#X obj 627 372 -;
#X obj 113 148 vsl 15 128 0 127 0 0 empty empty empty 0 -9 0 10 -262144
-1 -1 4813 1;
#X obj 155 148 vsl 15 128 0 127 0 0 empty empty empty 0 -9 0 10 -262144
-1 -1 10000 1;
#X obj 134 148 vsl 15 128 0 127 0 0 empty empty empty 0 -9 0 10 -262144
-1 -1 7463 1;
#X obj 626 403 *;
#X floatatom 296 371 5 0 0 0 - - -;
#X obj 448 408 *;
#X obj 525 411 *;
#X obj 448 145 env~ 2048;
#X obj 176 148 vsl 15 128 0 10 0 0 empty empty empty 0 -9 0 10 -262144
-1 -1 8100 1;
#X obj 65 370 outlet;
#X obj 113 369 outlet;
#X obj 161 366 outlet;
#X obj 105 109 cnv 15 110 30 empty empty 3_band_analysis 5 12 0 12
-262144 -66577 0;
#X obj 211 580 pipe;
#X obj 614 521 line;
#X obj 511 518 line;
#X obj 425 522 line;
#X obj 436 445 clip 0 100;
#X obj 523 444 clip 0 100;
#X obj 617 465 clip 0 100;
#X obj 613 498 pack f f;
#X floatatom 197 167 5 0 0 0 - - -;
#X msg 187 34 40;
#X obj 261 40 loadbang;
#X msg 275 70 4;
#X obj 613 247 env~ 2048;
#X obj 411 499 pack f f;
#X obj 510 495 pack f f;
#X floatatom -113 115 5 0 0 0 - - -;
#X floatatom -109 203 5 0 0 0 - - -;
#X obj -110 84 ctlin 1;
#X obj -114 143 / 12.7;
#X obj -3 37 ctlin 73;
#X floatatom -5 91 5 0 0 0 - - -;
#X obj -3 63 / 0.0635;
#X connect 0 0 4 0;
#X connect 1 0 6 0;
#X connect 1 1 5 0;
#X connect 1 2 41 0;
#X connect 2 0 4 1;
#X connect 3 0 1 1;
#X connect 4 0 1 0;
#X connect 4 0 23 0;
#X connect 5 0 11 0;
#X connect 6 0 8 0;
#X connect 7 0 21 0;
#X connect 8 0 9 0;
#X connect 8 1 7 1;
#X connect 9 0 7 0;
#X connect 10 0 22 0;
#X connect 11 0 12 0;
#X connect 11 1 10 1;
#X connect 12 0 10 0;
#X connect 13 0 15 0;
#X connect 14 0 13 0;
#X connect 14 1 15 1;
#X connect 15 0 19 0;
#X connect 16 0 25 0;
#X connect 17 0 27 0;
#X connect 18 0 26 0;
#X connect 19 0 35 0;
#X connect 20 0 19 1;
#X connect 20 0 22 1;
#X connect 20 0 21 1;
#X connect 21 0 33 0;
#X connect 22 0 34 0;
#X connect 23 0 9 1;
#X connect 23 0 12 1;
#X connect 23 0 13 1;
#X connect 24 0 20 0;
#X connect 30 0 17 0;
#X connect 31 0 18 0;
#X connect 32 0 16 0;
#X connect 33 0 42 0;
#X connect 34 0 43 0;
#X connect 35 0 36 0;
#X connect 36 0 30 0;
#X connect 37 0 36 1;
#X connect 37 0 43 1;
#X connect 37 0 42 1;
#X connect 38 0 37 0;
#X connect 39 0 38 0;
#X connect 39 0 40 0;
#X connect 40 0 24 0;
#X connect 41 0 14 0;
#X connect 42 0 32 0;
#X connect 43 0 31 0;
#X connect 44 0 47 0;
#X connect 45 0 24 0;
#X connect 46 0 44 0;
#X connect 47 0 45 0;
#X connect 48 0 50 0;
#X connect 49 0 37 0;
#X connect 50 0 49 0;
#X coords 0 -1 1 1 140 190 2 100 100;
