#N canvas 292 142 809 637 10;
#X floatatom 104 123 5 0 0 0 - - -;
#X floatatom 144 123 5 0 0 0 - - -;
#X floatatom 184 123 5 0 0 0 - - -;
#X obj 81 18 inlet;
#X obj 130 17 inlet;
#X obj 201 32 inlet;
#X obj 104 102 cnv 15 100 15 empty empty 3_b_processing 0 10 0 12 -262144
-66577 0;
#X obj 82 309 outlet;
#X obj 140 302 outlet;
#X obj 195 318 outlet;
#X obj 421 107 loadbang;
#X msg 400 160 1;
#X msg 435 160 1;
#X msg 473 161 1;
#X obj 94 204 +;
#X obj 157 208 +;
#X obj 199 210 +;
#X connect 0 0 14 1;
#X connect 1 0 15 1;
#X connect 2 0 16 1;
#X connect 3 0 14 0;
#X connect 4 0 15 0;
#X connect 5 0 16 0;
#X connect 10 0 11 0;
#X connect 10 0 12 0;
#X connect 10 0 13 0;
#X connect 11 0 0 0;
#X connect 12 0 1 0;
#X connect 13 0 2 0;
#X connect 14 0 7 0;
#X connect 15 0 8 0;
#X connect 16 0 9 0;
#X coords 0 -1 1 1 120 45 2 100 100;
