#N canvas 469 72 810 699 10;
#X obj 112 688 gemwin;
#X msg 112 645 create \, 1;
#X msg 112 665 dimen 800 800;
#X msg 151 622 destroy;
#X obj 383 144 hradio 30 1 0 8 empty empty empty 0 -8 0 10 -228856
-1 -1 0;
#X obj 251 689 square 2;
#X obj 122 113 fux_homo_abstraction 30 0;
#X obj -1 367 square 2;
#X obj 112 624 t b b;
#X obj 628 144 bng 30 250 50 0 empty empty GO! 35 15 0 15 -258113 -1
-1;
#N canvas 456 166 712 638 nds 0;
#X text 170 -445 coordinate;
#X obj 52 -628 dumpOSC 9000;
#X obj 156 -520 OSCroute /Kaoss;
#X obj 156 -499 OSCroute /1;
#X obj 156 -478 OSCroute /pos;
#X text 164 -458 fux_osc_pointer 1;
#X text 88 -461 selection;
#X obj 52 -497 bondo 2;
#X obj 53 -475 pack f f;
#X obj 157 -551 OSCroute /preset3 /preset1;
#X obj 263 -530 OSCroute /Button;
#X obj 263 -509 OSCroute /0 /1 /2 /3;
#X obj 279 -484 select 1;
#X obj 340 -484 select 1;
#X obj 279 -461 i;
#X obj 340 -461 i;
#X obj 303 -461 - 1;
#X obj 364 -461 + 1;
#X obj 279 -415 mod 3;
#X obj 202 -310 s nds_pos;
#X obj 292 -299 s nds_id;
#X obj 57 -304 s nds_select_point;
#X obj 52 -579 OSCroute /right /left /a /b /x /y /start /select;
#X obj 52 -603 OSCroute /nds;
#X connect 1 0 23 0;
#X connect 2 0 3 0;
#X connect 3 0 4 0;
#X connect 4 0 19 0;
#X connect 7 0 8 0;
#X connect 7 1 8 1;
#X connect 8 0 21 0;
#X connect 9 0 2 0;
#X connect 9 1 10 0;
#X connect 10 0 11 0;
#X connect 12 0 14 0;
#X connect 13 0 15 0;
#X connect 14 0 15 1;
#X connect 14 0 16 0;
#X connect 14 0 18 0;
#X connect 15 0 14 1;
#X connect 15 0 17 0;
#X connect 16 0 14 1;
#X connect 17 0 15 1;
#X connect 17 0 18 0;
#X connect 18 0 20 0;
#X connect 22 0 7 0;
#X connect 22 1 7 1;
#X connect 22 2 13 0;
#X connect 22 5 12 0;
#X connect 23 0 22 0;
#X connect 23 1 9 0;
#X restore 136 -40 pd nds;
#X obj 307 610 pix_texture;
#X obj 282 654 pix_texture;
#X obj -1 343 pix_texture;
#X obj -1 319 pix_texture;
#X obj 428 659 pix_texture;
#X obj 540 619 pix_texture;
#X obj 436 690 square 2;
#X obj 382 189 pd_video;
#X obj 383 300 pd_video;
#X obj 386 406 pd_video;
#X obj 385 122 cnv 15 1 1 empty empty MANTICORE_MAPPING_TOOLKIT 0 0
0 14 -262144 -66577 0;
#X obj 366 61 r nds_id;
#X obj 303 56 s active;
#X obj 122 256 fux_homo_abstraction 31 1;
#X obj 122 395 fux_homo_abstraction 3 2;
#X connect 1 0 0 0;
#X connect 2 0 0 0;
#X connect 3 0 0 0;
#X connect 4 0 23 0;
#X connect 6 0 13 0;
#X connect 8 0 1 0;
#X connect 8 1 2 0;
#X connect 9 0 8 0;
#X connect 11 1 12 1;
#X connect 12 0 5 0;
#X connect 13 0 7 0;
#X connect 14 1 13 1;
#X connect 15 0 17 0;
#X connect 16 1 15 1;
#X connect 18 0 14 0;
#X connect 19 0 11 0;
#X connect 20 0 16 0;
#X connect 22 0 4 0;
#X connect 24 0 12 0;
#X connect 25 0 15 0;
#X coords 0 -1 1 1 600 500 1 100 100;
