#N canvas 136 198 1274 525 10;
#X obj 722 -53 gemwin;
#X msg 722 -96 create \, 1;
#X msg 722 -76 dimen 800 800;
#X msg 761 -119 destroy;
#X obj 722 -117 t b b;
#X obj 722 -157 bng 30 250 50 0 empty empty GO! 35 15 0 15 -258113
-1 -1;
#X obj 514 -116 anysurface_nds;
#X obj 126 -148 cnv 30 1 1 empty empty anysurface_projection_toolkit_0.1
0 0 0 20 -233017 -66577 0;
#X obj 644 -30 anysurface_mapper 3 2;
#X obj 126 -116 anysurface_layer_select 4;
#X obj 384 -30 anysurface_mapper 31 1;
#X obj 125 -30 anysurface_mapper 30 0;
#X obj 903 -30 anysurface_mapper 3 3;
#X msg 814 -76 offset 1440 -50;
#X connect 1 0 0 0;
#X connect 2 0 0 0;
#X connect 3 0 0 0;
#X connect 4 0 1 0;
#X connect 4 1 2 0;
#X connect 5 0 4 0;
#X coords 0 0 1 1 600 500 0;
